<mxfile host="Electron" modified="2023-12-24T07:34:37.037Z" agent="Mozilla/5.0 (Windows NT 10.0; Win64; x64) AppleWebKit/537.36 (KHTML, like Gecko) draw.io/22.1.11 Chrome/114.0.5735.289 Electron/25.9.8 Safari/537.36" etag="dKp4AeqYE2NSpzssRBo1" version="22.1.11" type="device">
  <diagram name="ページ1" id="0GTkpOpO7OopeRpnRRyq">
    <mxGraphModel dx="1376" dy="845" grid="1" gridSize="10" guides="1" tooltips="1" connect="1" arrows="1" fold="1" page="1" pageScale="1" pageWidth="1169" pageHeight="827" math="0" shadow="0">
      <root>
        <mxCell id="0" />
        <mxCell id="1" parent="0" />
        <mxCell id="sopoUnnTEJ3EenJI_9PH-1" value="CE1" style="rounded=0;whiteSpace=wrap;html=1;" vertex="1" parent="1">
          <mxGeometry x="30" y="410" width="120" height="60" as="geometry" />
        </mxCell>
        <mxCell id="sopoUnnTEJ3EenJI_9PH-2" value="CE2" style="rounded=0;whiteSpace=wrap;html=1;" vertex="1" parent="1">
          <mxGeometry x="1010" y="410" width="120" height="60" as="geometry" />
        </mxCell>
        <mxCell id="sopoUnnTEJ3EenJI_9PH-3" value="PE1" style="rounded=0;whiteSpace=wrap;html=1;" vertex="1" parent="1">
          <mxGeometry x="230" y="410" width="120" height="60" as="geometry" />
        </mxCell>
        <mxCell id="sopoUnnTEJ3EenJI_9PH-4" value="PE2" style="rounded=0;whiteSpace=wrap;html=1;" vertex="1" parent="1">
          <mxGeometry x="800" y="410" width="120" height="60" as="geometry" />
        </mxCell>
        <mxCell id="sopoUnnTEJ3EenJI_9PH-5" value="P1" style="rounded=0;whiteSpace=wrap;html=1;" vertex="1" parent="1">
          <mxGeometry x="370" y="280" width="120" height="60" as="geometry" />
        </mxCell>
        <mxCell id="sopoUnnTEJ3EenJI_9PH-6" value="P3" style="rounded=0;whiteSpace=wrap;html=1;" vertex="1" parent="1">
          <mxGeometry x="650" y="280" width="120" height="60" as="geometry" />
        </mxCell>
        <mxCell id="sopoUnnTEJ3EenJI_9PH-7" value="P2" style="rounded=0;whiteSpace=wrap;html=1;" vertex="1" parent="1">
          <mxGeometry x="525" y="510" width="120" height="60" as="geometry" />
        </mxCell>
        <mxCell id="sopoUnnTEJ3EenJI_9PH-8" value="" style="endArrow=none;html=1;rounded=0;entryX=0;entryY=0.5;entryDx=0;entryDy=0;exitX=0.5;exitY=0;exitDx=0;exitDy=0;" edge="1" parent="1" source="sopoUnnTEJ3EenJI_9PH-3" target="sopoUnnTEJ3EenJI_9PH-5">
          <mxGeometry width="50" height="50" relative="1" as="geometry">
            <mxPoint x="320" y="370" as="sourcePoint" />
            <mxPoint x="370" y="320" as="targetPoint" />
          </mxGeometry>
        </mxCell>
        <mxCell id="sopoUnnTEJ3EenJI_9PH-9" value="" style="endArrow=none;html=1;rounded=0;entryX=0;entryY=0.5;entryDx=0;entryDy=0;exitX=0.5;exitY=1;exitDx=0;exitDy=0;" edge="1" parent="1" source="sopoUnnTEJ3EenJI_9PH-3" target="sopoUnnTEJ3EenJI_9PH-7">
          <mxGeometry width="50" height="50" relative="1" as="geometry">
            <mxPoint x="300" y="514" as="sourcePoint" />
            <mxPoint x="420" y="414" as="targetPoint" />
          </mxGeometry>
        </mxCell>
        <mxCell id="sopoUnnTEJ3EenJI_9PH-10" value="" style="endArrow=none;html=1;rounded=0;exitX=1;exitY=0.5;exitDx=0;exitDy=0;entryX=0;entryY=0.5;entryDx=0;entryDy=0;" edge="1" parent="1" source="sopoUnnTEJ3EenJI_9PH-5" target="sopoUnnTEJ3EenJI_9PH-6">
          <mxGeometry width="50" height="50" relative="1" as="geometry">
            <mxPoint x="530" y="460" as="sourcePoint" />
            <mxPoint x="580" y="410" as="targetPoint" />
          </mxGeometry>
        </mxCell>
        <mxCell id="sopoUnnTEJ3EenJI_9PH-11" value="" style="endArrow=none;html=1;rounded=0;exitX=1;exitY=0.5;exitDx=0;exitDy=0;entryX=0.5;entryY=1;entryDx=0;entryDy=0;" edge="1" parent="1" source="sopoUnnTEJ3EenJI_9PH-7" target="sopoUnnTEJ3EenJI_9PH-4">
          <mxGeometry width="50" height="50" relative="1" as="geometry">
            <mxPoint x="530" y="460" as="sourcePoint" />
            <mxPoint x="580" y="410" as="targetPoint" />
          </mxGeometry>
        </mxCell>
        <mxCell id="sopoUnnTEJ3EenJI_9PH-12" value="" style="endArrow=none;html=1;rounded=0;entryX=0.5;entryY=0;entryDx=0;entryDy=0;exitX=1;exitY=0.5;exitDx=0;exitDy=0;" edge="1" parent="1" source="sopoUnnTEJ3EenJI_9PH-6" target="sopoUnnTEJ3EenJI_9PH-4">
          <mxGeometry width="50" height="50" relative="1" as="geometry">
            <mxPoint x="530" y="460" as="sourcePoint" />
            <mxPoint x="580" y="410" as="targetPoint" />
          </mxGeometry>
        </mxCell>
        <mxCell id="sopoUnnTEJ3EenJI_9PH-13" value="" style="endArrow=none;html=1;rounded=0;exitX=1;exitY=0.5;exitDx=0;exitDy=0;entryX=0;entryY=0.5;entryDx=0;entryDy=0;" edge="1" parent="1" source="sopoUnnTEJ3EenJI_9PH-1" target="sopoUnnTEJ3EenJI_9PH-3">
          <mxGeometry width="50" height="50" relative="1" as="geometry">
            <mxPoint x="530" y="460" as="sourcePoint" />
            <mxPoint x="580" y="410" as="targetPoint" />
          </mxGeometry>
        </mxCell>
        <mxCell id="sopoUnnTEJ3EenJI_9PH-14" value="" style="endArrow=none;html=1;rounded=0;entryX=0;entryY=0.5;entryDx=0;entryDy=0;" edge="1" parent="1" target="sopoUnnTEJ3EenJI_9PH-2">
          <mxGeometry width="50" height="50" relative="1" as="geometry">
            <mxPoint x="920" y="440" as="sourcePoint" />
            <mxPoint x="580" y="410" as="targetPoint" />
          </mxGeometry>
        </mxCell>
        <mxCell id="sopoUnnTEJ3EenJI_9PH-15" value="lo0 unit 1 .1" style="text;html=1;strokeColor=none;fillColor=none;align=center;verticalAlign=middle;whiteSpace=wrap;rounded=0;" vertex="1" parent="1">
          <mxGeometry x="395" y="315" width="75" height="30" as="geometry" />
        </mxCell>
        <mxCell id="sopoUnnTEJ3EenJI_9PH-16" value="lo0, unit 3 .3" style="text;html=1;strokeColor=none;fillColor=none;align=center;verticalAlign=middle;whiteSpace=wrap;rounded=0;" vertex="1" parent="1">
          <mxGeometry x="670" y="315" width="80" height="30" as="geometry" />
        </mxCell>
        <mxCell id="sopoUnnTEJ3EenJI_9PH-17" value="lo0 unit 2&amp;nbsp; .2" style="text;html=1;strokeColor=none;fillColor=none;align=center;verticalAlign=middle;whiteSpace=wrap;rounded=0;" vertex="1" parent="1">
          <mxGeometry x="555" y="540" width="75" height="30" as="geometry" />
        </mxCell>
        <mxCell id="sopoUnnTEJ3EenJI_9PH-18" value="lo0 unit 11&amp;nbsp; .11" style="text;html=1;strokeColor=none;fillColor=none;align=center;verticalAlign=middle;whiteSpace=wrap;rounded=0;" vertex="1" parent="1">
          <mxGeometry x="260" y="440" width="80" height="30" as="geometry" />
        </mxCell>
        <mxCell id="sopoUnnTEJ3EenJI_9PH-19" value="lo0 unit 12&amp;nbsp; .12" style="text;html=1;strokeColor=none;fillColor=none;align=center;verticalAlign=middle;whiteSpace=wrap;rounded=0;" vertex="1" parent="1">
          <mxGeometry x="815" y="440" width="90" height="30" as="geometry" />
        </mxCell>
        <mxCell id="sopoUnnTEJ3EenJI_9PH-20" value="lo .101" style="text;html=1;strokeColor=none;fillColor=none;align=center;verticalAlign=middle;whiteSpace=wrap;rounded=0;" vertex="1" parent="1">
          <mxGeometry x="60" y="440" width="60" height="30" as="geometry" />
        </mxCell>
        <mxCell id="sopoUnnTEJ3EenJI_9PH-21" value="lo .102" style="text;html=1;strokeColor=none;fillColor=none;align=center;verticalAlign=middle;whiteSpace=wrap;rounded=0;" vertex="1" parent="1">
          <mxGeometry x="1040" y="480" width="60" height="30" as="geometry" />
        </mxCell>
        <mxCell id="sopoUnnTEJ3EenJI_9PH-22" value="lo . 10.0.0.0/24&lt;br&gt;interfaceはすべてlt-0/1/10なので省略　unitとIPを記載" style="text;html=1;strokeColor=none;fillColor=none;align=center;verticalAlign=middle;whiteSpace=wrap;rounded=0;" vertex="1" parent="1">
          <mxGeometry x="30" y="150" width="200" height="60" as="geometry" />
        </mxCell>
        <mxCell id="sopoUnnTEJ3EenJI_9PH-23" value="凡例:&lt;br&gt;10.1.0.1&lt;br&gt;unit 0" style="text;html=1;strokeColor=none;fillColor=none;align=center;verticalAlign=middle;whiteSpace=wrap;rounded=0;" vertex="1" parent="1">
          <mxGeometry x="30" y="210" width="200" height="60" as="geometry" />
        </mxCell>
        <mxCell id="sopoUnnTEJ3EenJI_9PH-24" value="10.2.0.4/30" style="text;html=1;strokeColor=default;fillColor=none;align=center;verticalAlign=middle;whiteSpace=wrap;rounded=0;dashed=1;" vertex="1" parent="1">
          <mxGeometry x="515" y="260" width="100" height="20" as="geometry" />
        </mxCell>
        <mxCell id="sopoUnnTEJ3EenJI_9PH-25" value=".1&lt;br&gt;unit 1" style="text;html=1;strokeColor=none;fillColor=none;align=center;verticalAlign=middle;whiteSpace=wrap;rounded=0;" vertex="1" parent="1">
          <mxGeometry x="220" y="370" width="70" height="30" as="geometry" />
        </mxCell>
        <mxCell id="sopoUnnTEJ3EenJI_9PH-26" value=".2&lt;br&gt;unit 2" style="text;html=1;strokeColor=none;fillColor=none;align=center;verticalAlign=middle;whiteSpace=wrap;rounded=0;" vertex="1" parent="1">
          <mxGeometry x="300" y="280" width="65" height="30" as="geometry" />
        </mxCell>
        <mxCell id="sopoUnnTEJ3EenJI_9PH-27" value="10.2.0.0/30" style="text;html=1;strokeColor=default;fillColor=none;align=center;verticalAlign=middle;whiteSpace=wrap;rounded=0;dashed=1;" vertex="1" parent="1">
          <mxGeometry x="220" y="320" width="100" height="20" as="geometry" />
        </mxCell>
        <mxCell id="sopoUnnTEJ3EenJI_9PH-29" value=".5&lt;br&gt;unit 5" style="text;html=1;strokeColor=none;fillColor=none;align=center;verticalAlign=middle;whiteSpace=wrap;rounded=0;" vertex="1" parent="1">
          <mxGeometry x="485" y="315" width="70" height="30" as="geometry" />
        </mxCell>
        <mxCell id="sopoUnnTEJ3EenJI_9PH-30" value=".6&lt;br&gt;unit 6" style="text;html=1;strokeColor=none;fillColor=none;align=center;verticalAlign=middle;whiteSpace=wrap;rounded=0;" vertex="1" parent="1">
          <mxGeometry x="585" y="315" width="65" height="30" as="geometry" />
        </mxCell>
        <mxCell id="sopoUnnTEJ3EenJI_9PH-31" value="10.2.0.8/30" style="text;html=1;strokeColor=default;fillColor=none;align=center;verticalAlign=middle;whiteSpace=wrap;rounded=0;dashed=1;" vertex="1" parent="1">
          <mxGeometry x="820" y="330" width="100" height="20" as="geometry" />
        </mxCell>
        <mxCell id="sopoUnnTEJ3EenJI_9PH-32" value=".9&lt;br&gt;unit 9" style="text;html=1;strokeColor=none;fillColor=none;align=center;verticalAlign=middle;whiteSpace=wrap;rounded=0;" vertex="1" parent="1">
          <mxGeometry x="760" y="280" width="70" height="30" as="geometry" />
        </mxCell>
        <mxCell id="sopoUnnTEJ3EenJI_9PH-33" value=".10&lt;br&gt;unit 10" style="text;html=1;strokeColor=none;fillColor=none;align=center;verticalAlign=middle;whiteSpace=wrap;rounded=0;" vertex="1" parent="1">
          <mxGeometry x="870" y="370" width="65" height="30" as="geometry" />
        </mxCell>
        <mxCell id="sopoUnnTEJ3EenJI_9PH-34" value="10.2.0.12/30" style="text;html=1;strokeColor=default;fillColor=none;align=center;verticalAlign=middle;whiteSpace=wrap;rounded=0;dashed=1;" vertex="1" parent="1">
          <mxGeometry x="375" y="470" width="100" height="20" as="geometry" />
        </mxCell>
        <mxCell id="sopoUnnTEJ3EenJI_9PH-35" value=".13&lt;br&gt;unit 13" style="text;html=1;strokeColor=none;fillColor=none;align=center;verticalAlign=middle;whiteSpace=wrap;rounded=0;" vertex="1" parent="1">
          <mxGeometry x="320" y="495" width="70" height="30" as="geometry" />
        </mxCell>
        <mxCell id="sopoUnnTEJ3EenJI_9PH-36" value=".14&lt;br&gt;unit 14" style="text;html=1;strokeColor=none;fillColor=none;align=center;verticalAlign=middle;whiteSpace=wrap;rounded=0;" vertex="1" parent="1">
          <mxGeometry x="450" y="540" width="65" height="30" as="geometry" />
        </mxCell>
        <mxCell id="sopoUnnTEJ3EenJI_9PH-37" value="10.2.0.16/30" style="text;html=1;strokeColor=default;fillColor=none;align=center;verticalAlign=middle;whiteSpace=wrap;rounded=0;dashed=1;" vertex="1" parent="1">
          <mxGeometry x="660" y="485" width="100" height="20" as="geometry" />
        </mxCell>
        <mxCell id="sopoUnnTEJ3EenJI_9PH-38" value=".17&lt;br&gt;unit 17" style="text;html=1;strokeColor=none;fillColor=none;align=center;verticalAlign=middle;whiteSpace=wrap;rounded=0;" vertex="1" parent="1">
          <mxGeometry x="645" y="540" width="70" height="30" as="geometry" />
        </mxCell>
        <mxCell id="sopoUnnTEJ3EenJI_9PH-39" value=".18&lt;br&gt;unit 18" style="text;html=1;strokeColor=none;fillColor=none;align=center;verticalAlign=middle;whiteSpace=wrap;rounded=0;" vertex="1" parent="1">
          <mxGeometry x="827.5" y="480" width="65" height="30" as="geometry" />
        </mxCell>
      </root>
    </mxGraphModel>
  </diagram>
</mxfile>
